<?xml version="1.0" encoding="UTF-8" standalone="no"?>
<!-- Created with Inkscape (http://www.inkscape.org/) -->

<svg
   xmlns:dc="http://purl.org/dc/elements/1.1/"
   xmlns:cc="http://creativecommons.org/ns#"
   xmlns:rdf="http://www.w3.org/1999/02/22-rdf-syntax-ns#"
   xmlns:svg="http://www.w3.org/2000/svg"
   xmlns="http://www.w3.org/2000/svg"
   xmlns:sodipodi="http://sodipodi.sourceforge.net/DTD/sodipodi-0.dtd"
   xmlns:inkscape="http://www.inkscape.org/namespaces/inkscape"
   width="744.09448819"
   height="1052.3622047"
   id="svg2"
   version="1.1"
   inkscape:version="0.48.5 r10040"
   sodipodi:docname="drawing.svg">
  <defs
     id="defs4" />
  <sodipodi:namedview
     id="base"
     pagecolor="#ffffff"
     bordercolor="#666666"
     borderopacity="1.0"
     inkscape:pageopacity="0.0"
     inkscape:pageshadow="2"
     inkscape:zoom="1.979899"
     inkscape:cx="272.35334"
     inkscape:cy="623.14611"
     inkscape:document-units="px"
     inkscape:current-layer="layer1"
     showgrid="false"
     inkscape:window-width="1920"
     inkscape:window-height="1014"
     inkscape:window-x="0"
     inkscape:window-y="27"
     inkscape:window-maximized="1" />
  <metadata
     id="metadata7">
    <rdf:RDF>
      <cc:Work
         rdf:about="">
        <dc:format>image/svg+xml</dc:format>
        <dc:type
           rdf:resource="http://purl.org/dc/dcmitype/StillImage" />
        <dc:title />
      </cc:Work>
    </rdf:RDF>
  </metadata>
  <g
     inkscape:label="Layer 1"
     inkscape:groupmode="layer"
     id="layer1">
    <g
       id="g3895"
       transform="matrix(0.36310167,0,0,0.36310167,130.58914,248.87185)"
       style="fill:#fdfff6;fill-opacity:1"
       inkscape:export-filename="/home/aaron/Dropbox/Projects/Web/TinderHousing/src/client/static/img/icon.list.png"
       inkscape:export-xdpi="173.16557"
       inkscape:export-ydpi="173.16557">
      <path
         id="path3897"
         d="m 50.643,57.358 c -4.346,0 -8.039,1.52 -11.081,4.562 C 36.521,64.961 35,68.654 35,73 c 0,4.345 1.521,8.039 4.563,11.08 3.042,3.041 6.736,4.562 11.081,4.562 4.345,0 8.038,-1.521 11.08,-4.562 3.041,-3.041 4.562,-6.735 4.562,-11.08 0,-4.346 -1.521,-8.039 -4.563,-11.08 -3.041,-3.041 -6.734,-4.562 -11.08,-4.562 z"
         inkscape:connector-curvature="0"
         style="fill:#fdfff6;fill-opacity:1" />
      <path
         id="path3899"
         d="m 50.644,15.643 c -4.346,0 -8.039,1.521 -11.081,4.562 -3.041,3.042 -4.562,6.735 -4.562,11.08 0,4.346 1.52,8.039 4.562,11.081 3.042,3.041 6.736,4.562 11.081,4.562 4.345,0 8.038,-1.521 11.08,-4.562 3.041,-3.042 4.562,-6.735 4.562,-11.081 0,-4.345 -1.521,-8.038 -4.562,-11.08 -3.041,-3.041 -6.734,-4.562 -11.08,-4.562 z"
         inkscape:connector-curvature="0"
         style="fill:#fdfff6;fill-opacity:1" />
      <path
         id="path3901"
         d="m 50.644,99.072 c -4.346,0 -8.04,1.52 -11.081,4.562 -3.041,3.042 -4.562,6.735 -4.562,11.08 0,4.347 1.52,8.039 4.562,11.081 3.042,3.041 6.736,4.562 11.081,4.562 4.345,0 8.038,-1.521 11.08,-4.562 3.041,-3.042 4.562,-6.734 4.562,-11.081 0,-4.345 -1.521,-8.039 -4.562,-11.08 -3.041,-3.041 -6.734,-4.562 -11.08,-4.562 z"
         inkscape:connector-curvature="0"
         style="fill:#fdfff6;fill-opacity:1" />
      <path
         id="path3903"
         d="m 180.227,21.631 c -0.518,-0.515 -1.127,-0.773 -1.834,-0.773 H 79.321 c -0.706,0 -1.317,0.257 -1.833,0.773 -0.516,0.517 -0.774,1.127 -0.774,1.833 v 15.644 c 0,0.706 0.258,1.316 0.774,1.833 0.516,0.515 1.127,0.773 1.833,0.773 h 99.072 c 0.707,0 1.317,-0.257 1.834,-0.773 C 180.743,40.424 181,39.814 181,39.108 V 23.464 c 0,-0.706 -0.258,-1.317 -0.773,-1.833 z"
         inkscape:connector-curvature="0"
         style="fill:#fdfff6;fill-opacity:1" />
      <path
         id="path3905"
         d="M 178.393,62.572 H 79.321 c -0.706,0 -1.317,0.257 -1.833,0.774 -0.516,0.516 -0.774,1.127 -0.774,1.833 v 15.644 c 0,0.705 0.258,1.316 0.774,1.832 0.516,0.517 1.127,0.774 1.833,0.774 h 99.072 c 0.707,0 1.317,-0.257 1.834,-0.774 C 180.743,82.139 181,81.528 181,80.823 V 65.179 c 0,-0.706 -0.258,-1.318 -0.773,-1.833 -0.518,-0.516 -1.127,-0.774 -1.834,-0.774 z"
         inkscape:connector-curvature="0"
         style="fill:#fdfff6;fill-opacity:1" />
      <path
         id="path3907"
         d="M 178.393,104.286 H 79.321 c -0.706,0 -1.317,0.258 -1.833,0.774 -0.516,0.516 -0.774,1.127 -0.774,1.832 v 15.644 c 0,0.707 0.258,1.317 0.774,1.834 0.516,0.515 1.127,0.772 1.833,0.772 h 99.072 c 0.707,0 1.317,-0.257 1.834,-0.772 0.516,-0.517 0.773,-1.127 0.773,-1.834 v -15.644 c 0,-0.705 -0.258,-1.317 -0.773,-1.832 -0.518,-0.515 -1.127,-0.774 -1.834,-0.774 z"
         inkscape:connector-curvature="0"
         style="fill:#fdfff6;fill-opacity:1" />
    </g>
    <path
       style="fill:#333333"
       d="m 438.73595,323.16098 -1.05836,-1.05836 0,-2.70656 0,-2.70656 -1.69912,-0.50897 c -0.93451,-0.27993 -2.46384,-0.89385 -3.3985,-1.36426 l -1.69939,-0.8553 -1.44029,1.46997 c -1.71287,1.74818 -2.57564,2.24581 -3.89376,2.24581 -1.3972,0 -2.26254,-0.53484 -4.17757,-2.58201 -1.54841,-1.65525 -1.68351,-1.8984 -1.68351,-3.02997 0,-1.57166 0.42868,-2.36243 2.2458,-4.14286 l 1.46998,-1.44029 -0.8553,-1.69939 c -0.47041,-0.93467 -1.08433,-2.46399 -1.36426,-3.3985 l -0.50897,-1.69912 -2.70656,0 -2.70656,0 -1.05836,-1.05836 -1.05836,-1.05836 0,-3.06283 0,-3.06284 1.05836,-1.05836 1.05836,-1.05836 2.70656,0 2.70656,0 0.50897,-1.69912 c 0.27993,-0.93451 0.89385,-2.46384 1.36426,-3.3985 l 0.8553,-1.69939 -1.46998,-1.44029 c -1.81712,-1.78043 -2.2458,-2.5712 -2.2458,-4.14286 0,-1.13157 0.1351,-1.37472 1.68351,-3.02997 1.91503,-2.04717 2.78037,-2.58201 4.17757,-2.58201 1.31812,0 2.18089,0.49763 3.89376,2.2458 l 1.44029,1.46998 1.69939,-0.8553 c 0.93466,-0.47041 2.46399,-1.08433 3.3985,-1.36426 l 1.69912,-0.50897 0,-2.70656 0,-2.70656 1.05836,-1.05836 1.05836,-1.05836 3.06284,0 3.06283,0 1.05836,1.05836 1.05836,1.05836 0,2.70449 0,2.7045 1.8882,0.60814 c 1.03851,0.33447 2.56676,0.95041 3.39612,1.36874 l 1.50792,0.76061 1.44268,-1.47239 c 1.71658,-1.75195 2.57758,-2.24822 3.90053,-2.24822 1.29416,0 1.88548,0.32716 3.62867,2.00765 1.72531,1.66325 2.22802,2.5327 2.22802,3.85343 0,1.31812 -0.49763,2.18089 -2.24581,3.89376 l -1.46997,1.44029 0.8553,1.69939 c 0.47041,0.93466 1.08433,2.46399 1.36426,3.3985 l 0.50897,1.69912 2.70656,0 2.70656,0 1.05836,1.05836 1.05836,1.05836 0,3.06284 0,3.06283 -1.05836,1.05836 -1.05836,1.05836 -2.7045,0 -2.70449,0 -0.60814,1.8882 c -0.33447,1.03851 -0.95041,2.56676 -1.36875,3.39612 l -0.7606,1.50792 1.47239,1.44268 c 1.75057,1.71524 2.24822,2.57764 2.24822,3.89614 0,1.32073 -0.50271,2.19018 -2.22802,3.85343 -1.74319,1.68049 -2.33451,2.00765 -3.62867,2.00765 -1.32295,0 -2.18395,-0.49627 -3.90053,-2.24822 l -1.44268,-1.47239 -1.50792,0.7606 c -0.82936,0.41834 -2.35761,1.03428 -3.39612,1.36875 l -1.8882,0.60814 0,2.70449 0,2.7045 -1.05836,1.05836 -1.05836,1.05836 -3.06283,0 -3.06284,0 -1.05836,-1.05836 z m 6.28607,-21.99753 c 2.67773,-0.7952 4.92294,-3.83189 4.92294,-6.65839 0,-3.62714 -3.46068,-7.08781 -7.08781,-7.08781 -3.62714,0 -7.08781,3.46067 -7.08781,7.08781 0,2.75347 2.2457,5.85569 4.80882,6.64292 1.73568,0.53309 2.68966,0.53641 4.44386,0.0154 z"
       id="path4064"
       inkscape:connector-curvature="0"
       inkscape:export-filename="/home/aaron/Dropbox/Projects/Web/TinderHousing/src/client/static/img/icon.settings.png"
       inkscape:export-xdpi="121.15381"
       inkscape:export-ydpi="121.15381" />
    <g
       id="g4168"
       inkscape:export-filename="/home/aaron/Dropbox/Projects/Web/TinderHousing/src/client/static/img/icon.den.png"
       inkscape:export-xdpi="57.599998"
       inkscape:export-ydpi="57.599998">
      <rect
         ry="8.5714283"
         y="428.07648"
         x="122.14286"
         height="50"
         width="50"
         id="rect4066"
         style="fill:#bcd35f;fill-opacity:1;stroke:none;stroke-width:2;stroke-miterlimit:4;stroke-opacity:1;stroke-dasharray:none;stroke-dashoffset:0" />
      <path
         style="fill:#333333;fill-opacity:1"
         inkscape:connector-curvature="0"
         d="m 158.60487,466.61209 -4.54306,-4.54306 c 1.09492,-1.58052 1.64262,-3.34231 1.64262,-5.28488 0,-1.26269 -0.24516,-2.47027 -0.73531,-3.62257 -0.48999,-1.15248 -1.15231,-2.14578 -1.98679,-2.98026 -0.83448,-0.83449 -1.82763,-1.4968 -2.97993,-1.98679 -1.15263,-0.49016 -2.36021,-0.73515 -3.62291,-0.73515 -1.26269,0 -2.47027,0.24499 -3.62258,0.73515 -1.15247,0.48999 -2.14578,1.1523 -2.98026,1.98679 -0.83448,0.83448 -1.49679,1.82795 -1.98679,2.98026 -0.49016,1.15246 -0.73515,2.35988 -0.73515,3.62257 0,1.2627 0.24499,2.46996 0.73515,3.62259 0.49,1.1523 1.15231,2.14545 1.98679,2.97993 0.83448,0.83464 1.82796,1.4968 2.98026,1.98695 1.15246,0.49016 2.35989,0.73515 3.62258,0.73515 1.94289,0 3.70452,-0.5477 5.28504,-1.64262 l 4.54306,4.52973 c 0.31782,0.33554 0.71482,0.50332 1.19197,0.50332 0.4591,0 0.85676,-0.16778 1.19198,-0.50332 0.33554,-0.33538 0.50332,-0.73288 0.50332,-1.19198 1.6e-4,-0.46772 -0.16306,-0.8652 -0.48999,-1.19181 z m -8.03315,-5.63603 c -1.16125,1.16125 -2.55855,1.74179 -4.19223,1.74179 -1.63352,0 -3.03082,-0.5807 -4.19207,-1.74179 -1.16125,-1.16124 -1.74179,-2.55839 -1.74179,-4.19207 0,-1.63352 0.58071,-3.03098 1.74179,-4.19206 1.16109,-1.16125 2.55855,-1.7418 4.19207,-1.7418 1.63352,0 3.03082,0.58071 4.19223,1.7418 1.16125,1.16108 1.74195,2.55854 1.74195,4.19206 0,1.63368 -0.58086,3.03083 -1.74195,4.19207 z"
         id="path4156" />
      <path
         sodipodi:nodetypes="cccc"
         inkscape:connector-curvature="0"
         id="path4165"
         d="m 157.24574,445.49549 -20.94111,-1e-5 10.47055,-12.61423 z"
         inkscape:transform-center-y="-2.1023708"
         style="fill:#333333;fill-opacity:1;stroke:none" />
    </g>
    <rect
       style="fill:#ececec;fill-opacity:1;stroke:none"
       id="rect4066-2"
       width="135.86296"
       height="135.86296"
       x="271.98483"
       y="312.17416"
       ry="23.290792" />
    <path
       style="fill:#999999"
       d="m 350.80323,415.55546 0,-16.39309 -0.6382,-0.63819 -0.63819,-0.6382 -9.31256,0 -9.31257,0 -0.63819,0.6382 -0.63819,0.63819 0,16.2823 0,16.28229 -13.86388,0 -13.86388,0 0,-27.50944 0,-27.50943 -5.9019,0 c -7.34913,0 -7.85282,-0.14955 -7.85282,-2.33164 0,-0.81355 0.56883,-1.40087 25.6001,-26.43214 25.43411,-25.43412 25.60575,-25.6001 26.47133,-25.6001 0.86558,0 1.03721,0.16598 26.47133,25.6001 l 25.6001,25.6001 0,0.93728 c 0,0.73311 -0.12584,1.0539 -0.5777,1.47267 l -0.57771,0.5354 -6.29882,0 -6.29882,0 -0.0554,27.67318 -0.0554,27.67319 -13.80929,0.0562 -13.8093,0.0562 0,-16.39309 z"
       id="path3081"
       inkscape:connector-curvature="0" />
    <path
       style="fill:none;stroke:#cccccc;stroke-width:3;stroke-linecap:butt;stroke-linejoin:miter;stroke-opacity:1;stroke-miterlimit:4;stroke-dasharray:none"
       d="M 284.28571,430.93362 388.92857,326.29076"
       id="path3083"
       inkscape:connector-curvature="0" />
  </g>
</svg>
